<?xml version="1.0" encoding="UTF-8" standalone="no"?>
<!DOCTYPE svg PUBLIC "-//W3C//DTD SVG 1.0//EN" "http://www.w3.org/TR/2001/PR-SVG-20010719/DTD/svg10.dtd">
<svg width="26cm" height="19cm" viewBox="-2 -2 503 363" xmlns="http://www.w3.org/2000/svg" xmlns:xlink="http://www.w3.org/1999/xlink">
  <g>
    <rect style="fill: none; fill-opacity:0; stroke-width: 2; stroke: #000000" x="0" y="0" width="500" height="360"/>
    <text font-size="12.7998" style="fill: #000000;text-anchor:middle;font-family:sans-serif;font-style:normal;font-weight:normal" x="250" y="183.9">
      <tspan x="250" y="183.9"></tspan>
    </text>
  </g>
  <g>
    <rect style="fill: #ffffff" x="280" y="20" width="172.3" height="18"/>
    <rect style="fill: none; fill-opacity:0; stroke-width: 2; stroke: #000000" x="280" y="20" width="172.3" height="18"/>
    <text font-size="11.2" style="fill: #000000;text-anchor:middle;font-family:sans-serif;font-style:normal;font-weight:700" x="366.15" y="34">History</text>
    <rect style="fill: #ffffff" x="280" y="38" width="172.3" height="116"/>
    <rect style="fill: none; fill-opacity:0; stroke-width: 2; stroke: #000000" x="280" y="38" width="172.3" height="116"/>
    <polygon style="fill: #000000" points="283,48 285,51 287,48 285,45 "/>
    <text font-size="12.8" style="fill: #000000;text-anchor:start;font-family:monospace;font-style:normal;font-weight:normal" x="289" y="54">item</text>
    <text font-size="12.8" style="fill: #000000;text-anchor:start;font-family:monospace;font-style:normal;font-weight:normal" x="360.6" y="54">integer</text>
    <line style="fill: none; fill-opacity:0; stroke-width: 1; stroke: #000000" x1="289" y1="55.6" x2="414.5" y2="55.6"/>
    <polygon style="fill: #000000" points="283,64 285,67 287,64 285,61 "/>
    <text font-size="12.8" style="fill: #000000;text-anchor:start;font-family:monospace;font-style:normal;font-weight:normal" x="289" y="70">datetime</text>
    <text font-size="12.8" style="fill: #000000;text-anchor:start;font-family:monospace;font-style:normal;font-weight:normal" x="360.6" y="70">timestamp</text>
    <line style="fill: none; fill-opacity:0; stroke-width: 1; stroke: #000000" x1="289" y1="71.6" x2="429.9" y2="71.6"/>
    <ellipse style="fill: #000000" cx="285" cy="80" rx="2" ry="2"/>
    <text font-size="12.8" style="fill: #000000;text-anchor:start;font-family:monospace;font-style:normal;font-weight:normal" x="289" y="86">mat</text>
    <text font-size="12.8" style="fill: #000000;text-anchor:start;font-family:monospace;font-style:normal;font-weight:normal" x="360.6" y="86">integer</text>
    <ellipse style="fill: #000000" cx="285" cy="96" rx="2" ry="2"/>
    <text font-size="12.8" style="fill: #000000;text-anchor:start;font-family:monospace;font-style:normal;font-weight:normal" x="289" y="102">action</text>
    <text font-size="12.8" style="fill: #000000;text-anchor:start;font-family:monospace;font-style:normal;font-weight:normal" x="360.6" y="102">integer</text>
    <ellipse style="fill: none; fill-opacity:0; stroke-width: 0.2; stroke: #000000" cx="285" cy="112" rx="2" ry="2"/>
    <text font-size="12.8" style="fill: #000000;text-anchor:start;font-family:monospace;font-style:normal;font-weight:normal" x="289" y="118">sensors</text>
    <text font-size="12.8" style="fill: #000000;text-anchor:start;font-family:monospace;font-style:normal;font-weight:normal" x="360.6" y="118">array&lt;real&gt;</text>
    <ellipse style="fill: none; fill-opacity:0; stroke-width: 0.2; stroke: #000000" cx="285" cy="128" rx="2" ry="2"/>
    <text font-size="12.8" style="fill: #000000;text-anchor:start;font-family:monospace;font-style:normal;font-weight:normal" x="289" y="134">x</text>
    <text font-size="12.8" style="fill: #000000;text-anchor:start;font-family:monospace;font-style:normal;font-weight:normal" x="360.6" y="134">real</text>
    <ellipse style="fill: none; fill-opacity:0; stroke-width: 0.2; stroke: #000000" cx="285" cy="144" rx="2" ry="2"/>
    <text font-size="12.8" style="fill: #000000;text-anchor:start;font-family:monospace;font-style:normal;font-weight:normal" x="289" y="150">y</text>
    <text font-size="12.8" style="fill: #000000;text-anchor:start;font-family:monospace;font-style:normal;font-weight:normal" x="360.6" y="150">real</text>
  </g>
  <g>
    <rect style="fill: #ffffff" x="40" y="20" width="141.5" height="18"/>
    <rect style="fill: none; fill-opacity:0; stroke-width: 2; stroke: #000000" x="40" y="20" width="141.5" height="18"/>
    <text font-size="11.2" style="fill: #000000;text-anchor:middle;font-family:sans-serif;font-style:normal;font-weight:700" x="110.75" y="34">Items</text>
    <rect style="fill: #ffffff" x="40" y="38" width="141.5" height="36"/>
    <rect style="fill: none; fill-opacity:0; stroke-width: 2; stroke: #000000" x="40" y="38" width="141.5" height="36"/>
    <polygon style="fill: #000000" points="43,48 45,51 47,48 45,45 "/>
    <text font-size="12.8" style="fill: #000000;text-anchor:start;font-family:monospace;font-style:normal;font-weight:normal" x="49" y="54">itemid</text>
    <text font-size="12.8" style="fill: #000000;text-anchor:start;font-family:monospace;font-style:normal;font-weight:normal" x="120.6" y="54">integer</text>
    <line style="fill: none; fill-opacity:0; stroke-width: 1; stroke: #000000" x1="49" y1="55.6" x2="174.5" y2="55.6"/>
    <ellipse style="fill: #000000" cx="45" cy="64" rx="2" ry="2"/>
    <text font-size="12.8" style="fill: #000000;text-anchor:start;font-family:monospace;font-style:normal;font-weight:normal" x="49" y="70">itemtype</text>
    <text font-size="12.8" style="fill: #000000;text-anchor:start;font-family:monospace;font-style:normal;font-weight:normal" x="120.6" y="70">integer</text>
  </g>
  <g>
    <rect style="fill: #ffffff" x="40" y="92.9684" width="195.4" height="18"/>
    <rect style="fill: none; fill-opacity:0; stroke-width: 2; stroke: #000000" x="40" y="92.9684" width="195.4" height="18"/>
    <text font-size="11.2" style="fill: #000000;text-anchor:middle;font-family:sans-serif;font-style:normal;font-weight:700" x="137.7" y="106.968">ItemTypes</text>
    <rect style="fill: #ffffff" x="40" y="110.968" width="195.4" height="68"/>
    <rect style="fill: none; fill-opacity:0; stroke-width: 2; stroke: #000000" x="40" y="110.968" width="195.4" height="68"/>
    <polygon style="fill: #000000" points="43,120.968 45,123.968 47,120.968 45,117.968 "/>
    <text font-size="12.8" style="fill: #000000;text-anchor:start;font-family:monospace;font-style:normal;font-weight:normal" x="49" y="126.968">itemtypeid</text>
    <text font-size="12.8" style="fill: #000000;text-anchor:start;font-family:monospace;font-style:normal;font-weight:normal" x="174.5" y="126.968">integer</text>
    <line style="fill: none; fill-opacity:0; stroke-width: 1; stroke: #000000" x1="49" y1="128.568" x2="228.4" y2="128.568"/>
    <ellipse style="fill: none; fill-opacity:0; stroke-width: 0.2; stroke: #000000" cx="45" cy="136.968" rx="2" ry="2"/>
    <text font-size="12.8" style="fill: #000000;text-anchor:start;font-family:monospace;font-style:normal;font-weight:normal" x="49" y="142.968">itemtypename</text>
    <text font-size="12.8" style="fill: #000000;text-anchor:start;font-family:monospace;font-style:normal;font-weight:normal" x="174.5" y="142.968">varchar</text>
    <ellipse style="fill: none; fill-opacity:0; stroke-width: 0.2; stroke: #000000" cx="45" cy="152.968" rx="2" ry="2"/>
    <text font-size="12.8" style="fill: #000000;text-anchor:start;font-family:monospace;font-style:normal;font-weight:normal" x="49" y="158.968">iscontainer</text>
    <text font-size="12.8" style="fill: #000000;text-anchor:start;font-family:monospace;font-style:normal;font-weight:normal" x="174.5" y="158.968">boolean</text>
    <ellipse style="fill: none; fill-opacity:0; stroke-width: 0.2; stroke: #000000" cx="45" cy="168.968" rx="2" ry="2"/>
    <text font-size="12.8" style="fill: #000000;text-anchor:start;font-family:monospace;font-style:normal;font-weight:normal" x="49" y="174.968">itemtypecomment</text>
    <text font-size="12.8" style="fill: #000000;text-anchor:start;font-family:monospace;font-style:normal;font-weight:normal" x="174.5" y="174.968">varchar</text>
  </g>
  <g>
    <polyline style="fill: none; fill-opacity:0; stroke-width: 2; stroke: #000000" points="40,64 20,64 20,120.968 30.2639,120.968 "/>
    <polygon style="fill: #000000" points="37.7639,120.968 27.7639,125.968 30.2639,120.968 27.7639,115.968 "/>
    <polygon style="fill: none; fill-opacity:0; stroke-width: 2; stroke: #000000" points="37.7639,120.968 27.7639,125.968 30.2639,120.968 27.7639,115.968 "/>
    <text font-size="9.6" style="fill: #000000;text-anchor:end;font-family:monospace;font-style:normal;font-weight:normal" x="36" y="60">n</text>
    <text font-size="9.6" style="fill: #000000;text-anchor:end;font-family:monospace;font-style:normal;font-weight:normal" x="36" y="116.968">1</text>
  </g>
  <g>
    <rect style="fill: #ffffff" x="40" y="213.516" width="156.9" height="18"/>
    <rect style="fill: none; fill-opacity:0; stroke-width: 2; stroke: #000000" x="40" y="213.516" width="156.9" height="18"/>
    <text font-size="11.2" style="fill: #000000;text-anchor:middle;font-family:sans-serif;font-style:normal;font-weight:700" x="118.45" y="227.516">Mats</text>
    <rect style="fill: #ffffff" x="40" y="231.516" width="156.9" height="52"/>
    <rect style="fill: none; fill-opacity:0; stroke-width: 2; stroke: #000000" x="40" y="231.516" width="156.9" height="52"/>
    <polygon style="fill: #000000" points="43,241.516 45,244.516 47,241.516 45,238.516 "/>
    <text font-size="12.8" style="fill: #000000;text-anchor:start;font-family:monospace;font-style:normal;font-weight:normal" x="49" y="247.516">matid</text>
    <text font-size="12.8" style="fill: #000000;text-anchor:start;font-family:monospace;font-style:normal;font-weight:normal" x="136" y="247.516">integer</text>
    <line style="fill: none; fill-opacity:0; stroke-width: 1; stroke: #000000" x1="49" y1="249.116" x2="189.9" y2="249.116"/>
    <ellipse style="fill: #000000" cx="45" cy="257.516" rx="2" ry="2"/>
    <text font-size="12.8" style="fill: #000000;text-anchor:start;font-family:monospace;font-style:normal;font-weight:normal" x="49" y="263.516">mattype</text>
    <text font-size="12.8" style="fill: #000000;text-anchor:start;font-family:monospace;font-style:normal;font-weight:normal" x="136" y="263.516">integer</text>
    <ellipse style="fill: none; fill-opacity:0; stroke-width: 0.2; stroke: #000000" cx="45" cy="273.516" rx="2" ry="2"/>
    <text font-size="12.8" style="fill: #000000;text-anchor:start;font-family:monospace;font-style:normal;font-weight:normal" x="49" y="279.516">matcomment</text>
    <text font-size="12.8" style="fill: #000000;text-anchor:start;font-family:monospace;font-style:normal;font-weight:normal" x="136" y="279.516">varchar</text>
  </g>
  <g>
    <polyline style="fill: none; fill-opacity:0; stroke-width: 2; stroke: #000000" points="280,80 260,80 260,241.516 206.636,241.516 "/>
    <polygon style="fill: #000000" points="199.136,241.516 209.136,236.516 206.636,241.516 209.136,246.516 "/>
    <polygon style="fill: none; fill-opacity:0; stroke-width: 2; stroke: #000000" points="199.136,241.516 209.136,236.516 206.636,241.516 209.136,246.516 "/>
    <text font-size="9.6" style="fill: #000000;text-anchor:end;font-family:monospace;font-style:normal;font-weight:normal" x="276" y="76">n</text>
    <text font-size="9.6" style="fill: #000000;text-anchor:start;font-family:monospace;font-style:normal;font-weight:normal" x="200.9" y="237.516">1</text>
  </g>
  <g>
    <rect style="fill: #ffffff" x="40" y="300" width="149.2" height="18"/>
    <rect style="fill: none; fill-opacity:0; stroke-width: 2; stroke: #000000" x="40" y="300" width="149.2" height="18"/>
    <text font-size="11.2" style="fill: #000000;text-anchor:middle;font-family:sans-serif;font-style:normal;font-weight:700" x="114.6" y="314">MatTypes</text>
    <rect style="fill: #ffffff" x="40" y="318" width="149.2" height="20"/>
    <rect style="fill: none; fill-opacity:0; stroke-width: 2; stroke: #000000" x="40" y="318" width="149.2" height="20"/>
    <polygon style="fill: #000000" points="43,328 45,331 47,328 45,325 "/>
    <text font-size="12.8" style="fill: #000000;text-anchor:start;font-family:monospace;font-style:normal;font-weight:normal" x="49" y="334">mattypeid</text>
    <text font-size="12.8" style="fill: #000000;text-anchor:start;font-family:monospace;font-style:normal;font-weight:normal" x="128.3" y="334">varchar</text>
    <line style="fill: none; fill-opacity:0; stroke-width: 1; stroke: #000000" x1="49" y1="335.6" x2="182.2" y2="335.6"/>
  </g>
  <g>
    <polyline style="fill: none; fill-opacity:0; stroke-width: 2; stroke: #000000" points="40,257.516 20,257.516 20,328 30.2639,328 "/>
    <polygon style="fill: #000000" points="37.7639,328 27.7639,333 30.2639,328 27.7639,323 "/>
    <polygon style="fill: none; fill-opacity:0; stroke-width: 2; stroke: #000000" points="37.7639,328 27.7639,333 30.2639,328 27.7639,323 "/>
    <text font-size="9.6" style="fill: #000000;text-anchor:end;font-family:monospace;font-style:normal;font-weight:normal" x="36" y="253.516">n</text>
    <text font-size="9.6" style="fill: #000000;text-anchor:end;font-family:monospace;font-style:normal;font-weight:normal" x="36" y="324">1</text>
  </g>
  <g>
    <rect style="fill: #ffffff" x="280" y="180" width="187.7" height="18"/>
    <rect style="fill: none; fill-opacity:0; stroke-width: 2; stroke: #000000" x="280" y="180" width="187.7" height="18"/>
    <text font-size="11.2" style="fill: #000000;text-anchor:middle;font-family:sans-serif;font-style:normal;font-weight:700" x="373.85" y="194">ActionTypes</text>
    <rect style="fill: #ffffff" x="280" y="198" width="187.7" height="36"/>
    <rect style="fill: none; fill-opacity:0; stroke-width: 2; stroke: #000000" x="280" y="198" width="187.7" height="36"/>
    <polygon style="fill: #000000" points="283,208 285,211 287,208 285,205 "/>
    <text font-size="12.8" style="fill: #000000;text-anchor:start;font-family:monospace;font-style:normal;font-weight:normal" x="289" y="214">actiontypeid</text>
    <text font-size="12.8" style="fill: #000000;text-anchor:start;font-family:monospace;font-style:normal;font-weight:normal" x="406.8" y="214">integer</text>
    <line style="fill: none; fill-opacity:0; stroke-width: 1; stroke: #000000" x1="289" y1="215.6" x2="460.7" y2="215.6"/>
    <ellipse style="fill: #000000" cx="285" cy="224" rx="2" ry="2"/>
    <text font-size="12.8" style="fill: #000000;text-anchor:start;font-family:monospace;font-style:normal;font-weight:normal" x="289" y="230">actiontypename</text>
    <text font-size="12.8" style="fill: #000000;text-anchor:start;font-family:monospace;font-style:normal;font-weight:normal" x="406.8" y="230">varchar</text>
  </g>
  <g>
    <polyline style="fill: none; fill-opacity:0; stroke-width: 2; stroke: #000000" points="452.3,96 487.7,96 487.7,208 477.436,208 "/>
    <polygon style="fill: #000000" points="469.936,208 479.936,203 477.436,208 479.936,213 "/>
    <polygon style="fill: none; fill-opacity:0; stroke-width: 2; stroke: #000000" points="469.936,208 479.936,203 477.436,208 479.936,213 "/>
    <text font-size="9.59961" style="fill: #000000;text-anchor:start;font-family:monospace;font-style:normal;font-weight:normal" x="456.3" y="92">n</text>
    <text font-size="9.59961" style="fill: #000000;text-anchor:start;font-family:monospace;font-style:normal;font-weight:normal" x="471.7" y="204">1</text>
  </g>
  <g>
    <polyline style="fill: none; fill-opacity:0; stroke-width: 2; stroke: #000000" points="280,48 280,48 191.236,48 "/>
    <polygon style="fill: #000000" points="183.736,48 193.736,43 191.236,48 193.736,53 "/>
    <polygon style="fill: none; fill-opacity:0; stroke-width: 2; stroke: #000000" points="183.736,48 193.736,43 191.236,48 193.736,53 "/>
    <text font-size="9.59961" style="fill: #000000;text-anchor:end;font-family:monospace;font-style:normal;font-weight:normal" x="276" y="44">n</text>
    <text font-size="9.59961" style="fill: #000000;text-anchor:start;font-family:monospace;font-style:normal;font-weight:normal" x="185.5" y="44">1</text>
  </g>
  <g>
    <rect style="fill: #ffffff" x="360" y="300" width="110.7" height="18"/>
    <rect style="fill: none; fill-opacity:0; stroke-width: 2; stroke: #000000" x="360" y="300" width="110.7" height="18"/>
    <text font-size="11.2" style="fill: #000000;text-anchor:middle;font-family:sans-serif;font-style:normal;font-weight:700" x="415.35" y="314">Notations</text>
    <rect style="fill: #ffffff" x="360" y="318" width="110.7" height="20"/>
    <rect style="fill: none; fill-opacity:0; stroke-width: 2; stroke: #000000" x="360" y="318" width="110.7" height="20"/>
    <polygon style="fill: #000000" points="363,328 365,331 367,328 365,325 "/>
    <text font-size="12.8" style="fill: #000000;text-anchor:start;font-family:monospace;font-style:normal;font-weight:normal" x="369" y="334">primary key</text>
    <line style="fill: none; fill-opacity:0; stroke-width: 1; stroke: #000000" x1="369" y1="335.6" x2="463.7" y2="335.6"/>
  </g>
</svg>
